<svg width="78" height="12" viewBox="0 0 78 12" fill="none" xmlns="http://www.w3.org/2000/svg">
<path d="M12.936 4.27174C12.7899 4.11781 12.5902 4.0177 12.3727 3.98927V3.98885L8.97541 3.54829L7.63101 0.532645C7.4347 0.0912375 6.89439 -0.1172 6.4242 0.0670818C6.20005 0.154941 6.02183 0.322224 5.92826 0.532645L4.58386 3.54829L1.18654 3.98885C0.680379 4.05499 0.327166 4.49383 0.397622 4.96899C0.427901 5.17318 0.534547 5.3606 0.698515 5.49775L3.25815 7.64046L2.73222 11.0028C2.67525 11.3442 2.84229 11.6844 3.15587 11.8654C3.46502 12.051 3.86269 12.0441 4.16428 11.8478L6.77961 10.1782L9.39494 11.8496C9.81695 12.1184 10.3913 12.0153 10.6777 11.6191C10.8079 11.4391 10.8612 11.2197 10.827 11.0045L10.3011 7.64086L12.8608 5.49815C13.2423 5.17901 13.276 4.6299 12.936 4.27174ZM9.50953 7.15661C9.39502 7.25266 9.33962 7.39629 9.36206 7.53889L9.90987 11.1386L7.03754 9.30534C6.8827 9.20656 6.67927 9.20656 6.52443 9.30534L3.6352 11.1275L4.19715 7.53718C4.21898 7.39516 4.16361 7.25231 4.04969 7.15664L1.31065 4.83907L4.96636 4.36552C5.12642 4.34481 5.26287 4.2462 5.32516 4.10626L6.78506 0.857065C6.78672 0.858973 6.78795 0.861158 6.78873 0.863493L8.23357 4.10455C8.29587 4.24449 8.43234 4.3431 8.59237 4.36381L12.2527 4.85835L9.50953 7.15661Z" fill="#FEB300"/>
<path d="M29.1279 4.27174C28.9818 4.11781 28.7821 4.0177 28.5646 3.98927V3.98885L25.1673 3.54829L23.8229 0.532645C23.6266 0.0912375 23.0863 -0.1172 22.6161 0.0670818C22.3919 0.154941 22.2137 0.322224 22.1202 0.532645L20.7758 3.54829L17.3784 3.98885C16.8723 4.05499 16.5191 4.49383 16.5895 4.96899C16.6198 5.17318 16.7264 5.3606 16.8904 5.49775L19.45 7.64046L18.9241 11.0028C18.8671 11.3442 19.0342 11.6844 19.3478 11.8654C19.6569 12.051 20.0546 12.0441 20.3562 11.8478L22.9715 10.1782L25.5868 11.8496C26.0088 12.1184 26.5832 12.0153 26.8696 11.6191C26.9998 11.4391 27.0531 11.2197 27.0189 11.0045L26.493 7.64086L29.0526 5.49815C29.4342 5.17901 29.4679 4.6299 29.1279 4.27174ZM25.7014 7.15661C25.5869 7.25266 25.5315 7.39629 25.554 7.53889L26.1018 11.1386L23.2294 9.30534C23.0746 9.20656 22.8712 9.20656 22.7163 9.30534L19.8271 11.1275L20.389 7.53718C20.4109 7.39516 20.3555 7.25231 20.2416 7.15664L17.5025 4.83907L21.1583 4.36552C21.3183 4.34481 21.4548 4.2462 21.5171 4.10626L22.977 0.857065C22.9786 0.858973 22.9798 0.861158 22.9806 0.863493L24.4255 4.10455C24.4878 4.24449 24.6242 4.3431 24.7843 4.36381L28.4446 4.85835L25.7014 7.15661Z" fill="#FEB300"/>
<path d="M61.5112 4.27174C61.3651 4.11781 61.1654 4.0177 60.9479 3.98927V3.98885L57.5506 3.54829L56.2062 0.532645C56.0099 0.0912375 55.4696 -0.1172 54.9994 0.0670818C54.7752 0.154941 54.597 0.322224 54.5035 0.532645L53.1591 3.54829L49.7617 3.98885C49.2556 4.05499 48.9024 4.49383 48.9728 4.96899C49.0031 5.17318 49.1097 5.3606 49.2737 5.49775L51.8333 7.64046L51.3074 11.0028C51.2504 11.3442 51.4175 11.6844 51.7311 11.8654C52.0402 12.051 52.4379 12.0441 52.7395 11.8478L55.3548 10.1782L57.9701 11.8496C58.3921 12.1184 58.9665 12.0153 59.2529 11.6191C59.3831 11.4391 59.4364 11.2197 59.4022 11.0045L58.8763 7.64086L61.436 5.49815C61.8175 5.17901 61.8512 4.6299 61.5112 4.27174ZM58.0847 7.15661C57.9702 7.25266 57.9148 7.39629 57.9373 7.53889L58.4851 11.1386L55.6127 9.30534C55.4579 9.20656 55.2545 9.20656 55.0996 9.30534L52.2104 11.1275L52.7724 7.53718C52.7942 7.39516 52.7388 7.25231 52.6249 7.15664L49.8858 4.83907L53.5416 4.36552C53.7016 4.34481 53.8381 4.2462 53.9004 4.10626L55.3603 0.857065C55.3619 0.858973 55.3631 0.861158 55.3639 0.863493L56.8088 4.10455C56.8711 4.24449 57.0075 4.3431 57.1676 4.36381L60.8279 4.85835L58.0847 7.15661Z" fill="#FEB300"/>
<path d="M77.7036 4.27174C77.5575 4.11781 77.3578 4.0177 77.1403 3.98927V3.98885L73.743 3.54829L72.3986 0.532645C72.2023 0.0912375 71.662 -0.1172 71.1918 0.0670818C70.9676 0.154941 70.7894 0.322224 70.6958 0.532645L69.3514 3.54829L65.9541 3.98885C65.448 4.05499 65.0947 4.49383 65.1652 4.96899C65.1955 5.17318 65.3021 5.3606 65.4661 5.49775L68.0257 7.64046L67.4998 11.0028C67.4428 11.3442 67.6099 11.6844 67.9234 11.8654C68.2326 12.051 68.6303 12.0441 68.9319 11.8478L71.5472 10.1782L74.1625 11.8496C74.5845 12.1184 75.1588 12.0153 75.4453 11.6191C75.5754 11.4391 75.6288 11.2197 75.5946 11.0045L75.0687 7.64086L77.6283 5.49815C78.0099 5.17901 78.0436 4.6299 77.7036 4.27174ZM74.2771 7.15661C74.1626 7.25266 74.1072 7.39629 74.1296 7.53889L74.6774 11.1386L71.8051 9.30534C71.6503 9.20656 71.4469 9.20656 71.292 9.30534L68.4028 11.1275L68.9647 7.53718C68.9866 7.39516 68.9312 7.25231 68.8173 7.15664L66.0782 4.83907L69.7339 4.36552C69.894 4.34481 70.0304 4.2462 70.0927 4.10626L71.5526 0.857065C71.5543 0.858973 71.5555 0.861158 71.5563 0.863493L73.0012 4.10455C73.0634 4.24449 73.1999 4.3431 73.36 4.36381L77.0202 4.85835L74.2771 7.15661Z" fill="#C7CED6"/>
<path d="M45.3198 4.27174C45.1737 4.11781 44.974 4.0177 44.7565 3.98927V3.98885L41.3592 3.54829L40.0148 0.532645C39.8185 0.0912375 39.2782 -0.1172 38.808 0.0670818C38.5838 0.154941 38.4056 0.322224 38.312 0.532645L36.9676 3.54829L33.5703 3.98885C33.0642 4.05499 32.711 4.49383 32.7814 4.96899C32.8117 5.17318 32.9183 5.3606 33.0823 5.49775L35.6419 7.64046L35.116 11.0028C35.059 11.3442 35.2261 11.6844 35.5397 11.8654C35.8488 12.051 36.2465 12.0441 36.5481 11.8478L39.1634 10.1782L41.7787 11.8496C42.2007 12.1184 42.7751 12.0153 43.0615 11.6191C43.1917 11.4391 43.245 11.2197 43.2108 11.0045L42.6849 7.64086L45.2445 5.49815C45.6261 5.17901 45.6598 4.6299 45.3198 4.27174ZM41.8933 7.15661C41.7788 7.25266 41.7234 7.39629 41.7459 7.53889L42.2937 11.1386L39.4213 9.30534C39.2665 9.20656 39.0631 9.20656 38.9082 9.30534L36.019 11.1275L36.5809 7.53718C36.6028 7.39516 36.5474 7.25231 36.4335 7.15664L33.6944 4.83907L37.3501 4.36552C37.5102 4.34481 37.6467 4.2462 37.709 4.10626L39.1689 0.857065C39.1705 0.858973 39.1717 0.861158 39.1725 0.863493L40.6174 4.10455C40.6797 4.24449 40.8161 4.3431 40.9762 4.36381L44.6364 4.85835L41.8933 7.15661Z" fill="#FEB300"/>
</svg>
